<svg width="249" height="54" viewBox="0 0 249 54" fill="none" xmlns="http://www.w3.org/2000/svg">
<path d="M22.9997 6C35.7026 6 45.9997 16.2971 45.9997 29V45.1C45.9997 46.93 45.2728 48.685 43.9788 49.979C42.6848 51.273 40.9297 52 39.0997 52H24.1497V41.9099C24.1497 39.6076 24.29 37.2225 25.4975 35.2629C26.362 33.8586 27.5185 32.6566 28.8884 31.7385C30.2583 30.8204 31.8096 30.2077 33.4371 29.9418L33.8776 29.8705C34.0592 29.8085 34.2168 29.6912 34.3284 29.5351C34.44 29.379 34.5 29.1919 34.5 29C34.5 28.8081 34.44 28.621 34.3284 28.4649C34.2168 28.3088 34.0592 28.1915 33.8776 28.1294L33.4371 28.0581C31.0591 27.6697 28.8632 26.5441 27.1594 24.8403C25.4556 23.1365 24.3301 20.9406 23.9416 18.5626L23.8703 18.1222C23.8082 17.9406 23.6909 17.7829 23.5348 17.6713C23.3787 17.5597 23.1916 17.4997 22.9997 17.4997C22.8078 17.4997 22.6208 17.5597 22.4647 17.6713C22.3086 17.7829 22.1913 17.9406 22.1292 18.1222L22.0579 18.5626C21.7922 20.1902 21.1795 21.7415 20.2614 23.1114C19.3433 24.4814 18.1412 25.6378 16.7368 26.5022C14.7772 27.7097 12.3921 27.85 10.0898 27.85H0.0273438C0.628794 15.6818 10.6832 6 22.9997 6Z" fill="#5F6FFF"/>
<path d="M0 30.15H10.0901C12.3924 30.15 14.7775 30.2903 16.7371 31.4978C18.2689 32.4417 19.5583 33.7311 20.5022 35.2629C21.7097 37.2225 21.85 39.6076 21.85 41.9099V52H6.9C5.07001 52 3.31496 51.273 2.02096 49.979C0.726962 48.685 0 46.93 0 45.1L0 30.15ZM46 8.3C46 8.91 45.7577 9.49501 45.3263 9.92635C44.895 10.3577 44.31 10.6 43.7 10.6C43.09 10.6 42.505 10.3577 42.0737 9.92635C41.6423 9.49501 41.4 8.91 41.4 8.3C41.4 7.69 41.6423 7.10499 42.0737 6.67365C42.505 6.24232 43.09 6 43.7 6C44.31 6 44.895 6.24232 45.3263 6.67365C45.7577 7.10499 46 7.69 46 8.3Z" fill="#5F6FFF"/>
<path d="M57.64 32L66.696 9.504H70.248L79.272 32H74.632L67.656 13.536H69.256L62.184 32H57.64ZM62.44 27.808V24.16H74.536V27.808H62.44ZM90.307 32.32C89.1977 32.32 88.195 32.096 87.299 31.648C86.403 31.1787 85.6883 30.5493 85.155 29.76C84.6217 28.9707 84.3337 28.064 84.291 27.04V21.568C84.3337 20.544 84.6217 19.6373 85.155 18.848C85.7097 18.0373 86.4243 17.3973 87.299 16.928C88.195 16.4587 89.1977 16.224 90.307 16.224C91.7363 16.224 93.0163 16.576 94.147 17.28C95.2777 17.984 96.163 18.944 96.803 20.16C97.4643 21.376 97.795 22.752 97.795 24.288C97.795 25.8027 97.4643 27.168 96.803 28.384C96.163 29.6 95.2777 30.56 94.147 31.264C93.0163 31.968 91.7363 32.32 90.307 32.32ZM81.731 38.464V16.544H85.923V20.608L85.219 24.352L85.891 28.096V38.464H81.731ZM89.571 28.448C90.339 28.448 91.0217 28.2773 91.619 27.936C92.2163 27.5733 92.675 27.0827 92.995 26.464C93.3363 25.824 93.507 25.088 93.507 24.256C93.507 23.4453 93.3363 22.7307 92.995 22.112C92.675 21.472 92.2163 20.9813 91.619 20.64C91.0217 20.2773 90.339 20.096 89.571 20.096C88.8243 20.096 88.1523 20.2773 87.555 20.64C86.9577 20.9813 86.4883 21.472 86.147 22.112C85.827 22.7307 85.667 23.4453 85.667 24.256C85.667 25.088 85.827 25.824 86.147 26.464C86.4883 27.0827 86.947 27.5733 87.523 27.936C88.1203 28.2773 88.803 28.448 89.571 28.448ZM109.12 32.32C108.01 32.32 107.008 32.096 106.112 31.648C105.216 31.1787 104.501 30.5493 103.968 29.76C103.434 28.9707 103.146 28.064 103.104 27.04V21.568C103.146 20.544 103.434 19.6373 103.968 18.848C104.522 18.0373 105.237 17.3973 106.112 16.928C107.008 16.4587 108.01 16.224 109.12 16.224C110.549 16.224 111.829 16.576 112.96 17.28C114.09 17.984 114.976 18.944 115.616 20.16C116.277 21.376 116.608 22.752 116.608 24.288C116.608 25.8027 116.277 27.168 115.616 28.384C114.976 29.6 114.09 30.56 112.96 31.264C111.829 31.968 110.549 32.32 109.12 32.32ZM100.544 38.464V16.544H104.736V20.608L104.032 24.352L104.704 28.096V38.464H100.544ZM108.384 28.448C109.152 28.448 109.834 28.2773 110.432 27.936C111.029 27.5733 111.488 27.0827 111.808 26.464C112.149 25.824 112.32 25.088 112.32 24.256C112.32 23.4453 112.149 22.7307 111.808 22.112C111.488 21.472 111.029 20.9813 110.432 20.64C109.834 20.2773 109.152 20.096 108.384 20.096C107.637 20.096 106.965 20.2773 106.368 20.64C105.77 20.9813 105.301 21.472 104.96 22.112C104.64 22.7307 104.48 23.4453 104.48 24.256C104.48 25.088 104.64 25.824 104.96 26.464C105.301 27.0827 105.76 27.5733 106.336 27.936C106.933 28.2773 107.616 28.448 108.384 28.448ZM126.62 32.32C125.063 32.32 123.655 31.968 122.396 31.264C121.159 30.5387 120.167 29.568 119.42 28.352C118.695 27.1147 118.332 25.7387 118.332 24.224C118.332 22.7093 118.695 21.3547 119.42 20.16C120.145 18.944 121.137 17.984 122.396 17.28C123.655 16.5547 125.052 16.192 126.588 16.192C128.167 16.192 129.575 16.5547 130.812 17.28C132.071 17.984 133.063 18.944 133.788 20.16C134.513 21.3547 134.876 22.7093 134.876 24.224C134.876 25.7387 134.513 27.1147 133.788 28.352C133.063 29.568 132.071 30.5387 130.812 31.264C129.575 31.968 128.177 32.32 126.62 32.32ZM126.588 28.416C127.377 28.416 128.071 28.2453 128.668 27.904C129.287 27.5413 129.756 27.0507 130.076 26.432C130.417 25.792 130.588 25.0667 130.588 24.256C130.588 23.4453 130.417 22.7307 130.076 22.112C129.735 21.4933 129.265 21.0133 128.668 20.672C128.071 20.3093 127.377 20.128 126.588 20.128C125.82 20.128 125.137 20.3093 124.54 20.672C123.943 21.0133 123.473 21.4933 123.132 22.112C122.791 22.7307 122.62 23.4453 122.62 24.256C122.62 25.0667 122.791 25.792 123.132 26.432C123.473 27.0507 123.943 27.5413 124.54 27.904C125.137 28.2453 125.82 28.416 126.588 28.416ZM137.575 32V16.544H141.799V32H137.575ZM139.687 14.048C139.004 14.048 138.439 13.824 137.991 13.376C137.543 12.9067 137.319 12.3307 137.319 11.648C137.319 10.9867 137.543 10.4213 137.991 9.952C138.439 9.48267 139.004 9.248 139.687 9.248C140.391 9.248 140.956 9.48267 141.383 9.952C141.831 10.4213 142.055 10.9867 142.055 11.648C142.055 12.3307 141.831 12.9067 141.383 13.376C140.956 13.824 140.391 14.048 139.687 14.048ZM155.912 32V23.136C155.912 22.2187 155.624 21.472 155.048 20.896C154.472 20.32 153.726 20.032 152.808 20.032C152.211 20.032 151.678 20.16 151.208 20.416C150.739 20.672 150.366 21.0347 150.088 21.504C149.832 21.9733 149.704 22.5173 149.704 23.136L148.072 22.304C148.072 21.088 148.328 20.032 148.84 19.136C149.374 18.2187 150.099 17.504 151.016 16.992C151.955 16.48 153.011 16.224 154.184 16.224C155.315 16.224 156.328 16.512 157.224 17.088C158.12 17.6427 158.824 18.3787 159.336 19.296C159.848 20.192 160.104 21.1627 160.104 22.208V32H155.912ZM145.512 32V16.544H149.704V32H145.512ZM165.566 32V10.112H169.758V32H165.566ZM161.95 20.224V16.544H173.374V20.224H161.95ZM174.515 32L183.571 9.504H187.123L196.147 32H191.507L184.531 13.536H186.131L179.059 32H174.515ZM179.315 27.808V24.16H191.411V27.808H179.315ZM204.29 32.32C202.861 32.32 201.581 31.968 200.45 31.264C199.32 30.56 198.424 29.6 197.762 28.384C197.122 27.168 196.802 25.8027 196.802 24.288C196.802 22.752 197.122 21.376 197.762 20.16C198.424 18.944 199.309 17.984 200.418 17.28C201.549 16.576 202.84 16.224 204.29 16.224C205.4 16.224 206.392 16.448 207.266 16.896C208.162 17.344 208.877 17.9733 209.41 18.784C209.965 19.5733 210.264 20.4693 210.306 21.472V26.976C210.264 27.9787 209.976 28.8853 209.442 29.696C208.909 30.5067 208.194 31.1467 207.298 31.616C206.402 32.0853 205.4 32.32 204.29 32.32ZM204.994 28.448C205.784 28.448 206.466 28.2773 207.042 27.936C207.64 27.5733 208.098 27.0827 208.418 26.464C208.76 25.824 208.93 25.088 208.93 24.256C208.93 23.4453 208.76 22.7307 208.418 22.112C208.098 21.472 207.64 20.9813 207.042 20.64C206.466 20.2773 205.794 20.096 205.026 20.096C204.237 20.096 203.544 20.2773 202.946 20.64C202.37 21.0027 201.912 21.4933 201.57 22.112C201.25 22.7307 201.09 23.4453 201.09 24.256C201.09 25.088 201.25 25.824 201.57 26.464C201.912 27.0827 202.381 27.5733 202.978 27.936C203.576 28.2773 204.248 28.448 204.994 28.448ZM212.866 32H208.706V27.84L209.378 24.064L208.674 20.352V8.864H212.866V32ZM223.839 32.32C222.281 32.32 220.873 31.968 219.615 31.264C218.377 30.5387 217.385 29.568 216.639 28.352C215.913 27.1147 215.551 25.7387 215.551 24.224C215.551 22.7093 215.913 21.3547 216.639 20.16C217.364 18.944 218.356 17.984 219.615 17.28C220.873 16.5547 222.271 16.192 223.807 16.192C225.385 16.192 226.793 16.5547 228.031 17.28C229.289 17.984 230.281 18.944 231.007 20.16C231.732 21.3547 232.095 22.7093 232.095 24.224C232.095 25.7387 231.732 27.1147 231.007 28.352C230.281 29.568 229.289 30.5387 228.031 31.264C226.793 31.968 225.396 32.32 223.839 32.32ZM223.807 28.416C224.596 28.416 225.289 28.2453 225.887 27.904C226.505 27.5413 226.975 27.0507 227.295 26.432C227.636 25.792 227.807 25.0667 227.807 24.256C227.807 23.4453 227.636 22.7307 227.295 22.112C226.953 21.4933 226.484 21.0133 225.887 20.672C225.289 20.3093 224.596 20.128 223.807 20.128C223.039 20.128 222.356 20.3093 221.759 20.672C221.161 21.0133 220.692 21.4933 220.351 22.112C220.009 22.7307 219.839 23.4453 219.839 24.256C219.839 25.0667 220.009 25.792 220.351 26.432C220.692 27.0507 221.161 27.5413 221.759 27.904C222.356 28.2453 223.039 28.416 223.807 28.416ZM242.09 32.32C240.511 32.32 239.092 31.968 237.834 31.264C236.575 30.56 235.583 29.6 234.858 28.384C234.132 27.168 233.77 25.8027 233.77 24.288C233.77 22.752 234.132 21.376 234.858 20.16C235.583 18.944 236.575 17.984 237.834 17.28C239.114 16.5547 240.532 16.192 242.09 16.192C243.306 16.192 244.426 16.416 245.45 16.864C246.474 17.312 247.359 17.952 248.106 18.784L245.418 21.504C245.012 21.056 244.522 20.7147 243.946 20.48C243.391 20.2453 242.772 20.128 242.09 20.128C241.322 20.128 240.628 20.3093 240.01 20.672C239.412 21.0133 238.932 21.4933 238.57 22.112C238.228 22.7093 238.058 23.424 238.058 24.256C238.058 25.0667 238.228 25.792 238.57 26.432C238.932 27.0507 239.412 27.5413 240.01 27.904C240.628 28.2453 241.322 28.416 242.09 28.416C242.794 28.416 243.423 28.2987 243.978 28.064C244.554 27.808 245.044 27.4453 245.45 26.976L248.17 29.696C247.38 30.5493 246.474 31.2 245.45 31.648C244.426 32.096 243.306 32.32 242.09 32.32Z" fill="#000B6D"/>
<path d="M59.145 51V49.427H61.472C62.0613 49.427 62.577 49.3057 63.019 49.063C63.461 48.8117 63.8033 48.4607 64.046 48.01C64.2973 47.5593 64.423 47.0263 64.423 46.411C64.423 45.813 64.2973 45.293 64.046 44.851C63.7947 44.4003 63.448 44.0537 63.006 43.811C62.564 43.5597 62.0527 43.434 61.472 43.434H59.106V41.861H61.498C62.174 41.861 62.798 41.9737 63.37 42.199C63.9507 42.4243 64.4533 42.745 64.878 43.161C65.3113 43.5683 65.645 44.0493 65.879 44.604C66.1217 45.1587 66.243 45.7653 66.243 46.424C66.243 47.0827 66.1217 47.6937 65.879 48.257C65.645 48.8117 65.3157 49.297 64.891 49.713C64.4663 50.1203 63.9637 50.4367 63.383 50.662C62.811 50.8873 62.1913 51 61.524 51H59.145ZM57.936 51V41.861H59.704V51H57.936ZM70.0919 51.13C69.5199 51.13 69.0042 50.987 68.5449 50.701C68.0856 50.415 67.7259 50.025 67.4659 49.531C67.2059 49.037 67.0759 48.4823 67.0759 47.867C67.0759 47.243 67.2059 46.684 67.4659 46.19C67.7259 45.696 68.0856 45.306 68.5449 45.02C69.0042 44.734 69.5199 44.591 70.0919 44.591C70.5426 44.591 70.9456 44.682 71.3009 44.864C71.6562 45.046 71.9379 45.3017 72.1459 45.631C72.3626 45.9517 72.4796 46.3157 72.4969 46.723V48.985C72.4796 49.401 72.3626 49.7693 72.1459 50.09C71.9379 50.4107 71.6562 50.6663 71.3009 50.857C70.9456 51.039 70.5426 51.13 70.0919 51.13ZM70.4039 49.557C70.8806 49.557 71.2662 49.401 71.5609 49.089C71.8556 48.7683 72.0029 48.3567 72.0029 47.854C72.0029 47.5247 71.9336 47.2343 71.7949 46.983C71.6649 46.723 71.4786 46.5237 71.2359 46.385C71.0019 46.2377 70.7246 46.164 70.4039 46.164C70.0919 46.164 69.8146 46.2377 69.5719 46.385C69.3379 46.5237 69.1516 46.723 69.0129 46.983C68.8829 47.2343 68.8179 47.5247 68.8179 47.854C68.8179 48.192 68.8829 48.491 69.0129 48.751C69.1516 49.0023 69.3379 49.2017 69.5719 49.349C69.8146 49.4877 70.0919 49.557 70.4039 49.557ZM71.9119 51V49.31L72.1849 47.776L71.9119 46.268V44.721H73.6019V51H71.9119ZM77.2665 51.143C76.9112 51.143 76.5602 51.0953 76.2135 51C75.8755 50.9047 75.5635 50.7747 75.2775 50.61C74.9915 50.4367 74.7445 50.2287 74.5365 49.986L75.5505 48.959C75.7672 49.2017 76.0185 49.3837 76.3045 49.505C76.5905 49.6263 76.9068 49.687 77.2535 49.687C77.5308 49.687 77.7388 49.648 77.8775 49.57C78.0248 49.492 78.0985 49.375 78.0985 49.219C78.0985 49.0457 78.0205 48.9113 77.8645 48.816C77.7172 48.7207 77.5222 48.6427 77.2795 48.582C77.0368 48.5127 76.7812 48.439 76.5125 48.361C76.2525 48.2743 76.0012 48.166 75.7585 48.036C75.5158 47.8973 75.3165 47.711 75.1605 47.477C75.0132 47.2343 74.9395 46.9223 74.9395 46.541C74.9395 46.1423 75.0348 45.7957 75.2255 45.501C75.4248 45.2063 75.7065 44.9767 76.0705 44.812C76.4345 44.6473 76.8635 44.565 77.3575 44.565C77.8775 44.565 78.3455 44.656 78.7615 44.838C79.1862 45.02 79.5372 45.293 79.8145 45.657L78.7875 46.684C78.5968 46.45 78.3802 46.281 78.1375 46.177C77.9035 46.073 77.6478 46.021 77.3705 46.021C77.1192 46.021 76.9242 46.06 76.7855 46.138C76.6555 46.216 76.5905 46.3243 76.5905 46.463C76.5905 46.619 76.6642 46.7403 76.8115 46.827C76.9675 46.9137 77.1668 46.9917 77.4095 47.061C77.6522 47.1217 77.9035 47.1953 78.1635 47.282C78.4322 47.36 78.6835 47.4727 78.9175 47.62C79.1602 47.7673 79.3552 47.9623 79.5025 48.205C79.6585 48.4477 79.7365 48.7597 79.7365 49.141C79.7365 49.7563 79.5155 50.246 79.0735 50.61C78.6315 50.9653 78.0292 51.143 77.2665 51.143ZM85.1099 51V47.399C85.1099 47.0263 84.9929 46.723 84.7589 46.489C84.5249 46.255 84.2215 46.138 83.8489 46.138C83.6062 46.138 83.3895 46.19 83.1989 46.294C83.0082 46.398 82.8565 46.5453 82.7439 46.736C82.6399 46.9267 82.5879 47.1477 82.5879 47.399L81.9249 47.061C81.9249 46.567 82.0289 46.138 82.2369 45.774C82.4449 45.4013 82.7309 45.111 83.0949 44.903C83.4675 44.695 83.8922 44.591 84.3689 44.591C84.8455 44.591 85.2659 44.695 85.6299 44.903C86.0025 45.111 86.2929 45.397 86.5009 45.761C86.7089 46.125 86.8129 46.5453 86.8129 47.022V51H85.1099ZM80.8849 51V41.601H82.5879V51H80.8849ZM91.6687 51.13C91.218 51.13 90.8107 51.0347 90.4467 50.844C90.0827 50.6533 89.7923 50.3933 89.5757 50.064C89.359 49.7347 89.242 49.3663 89.2247 48.959V46.723C89.242 46.3157 89.359 45.9517 89.5757 45.631C89.801 45.3017 90.0957 45.046 90.4597 44.864C90.8237 44.682 91.2267 44.591 91.6687 44.591C92.2493 44.591 92.7693 44.734 93.2287 45.02C93.688 45.306 94.0477 45.696 94.3077 46.19C94.5763 46.684 94.7107 47.243 94.7107 47.867C94.7107 48.4823 94.5763 49.037 94.3077 49.531C94.0477 50.025 93.688 50.415 93.2287 50.701C92.7693 50.987 92.2493 51.13 91.6687 51.13ZM88.1847 51V41.601H89.8877V46.268L89.6017 47.776L89.8747 49.31V51H88.1847ZM91.3827 49.557C91.6947 49.557 91.9677 49.4877 92.2017 49.349C92.4443 49.2017 92.6307 49.0023 92.7607 48.751C92.8993 48.491 92.9687 48.192 92.9687 47.854C92.9687 47.5247 92.8993 47.2343 92.7607 46.983C92.6307 46.723 92.4443 46.5237 92.2017 46.385C91.959 46.2377 91.6817 46.164 91.3697 46.164C91.0577 46.164 90.7803 46.2377 90.5377 46.385C90.3037 46.5237 90.1173 46.723 89.9787 46.983C89.8487 47.2343 89.7837 47.5247 89.7837 47.854C89.7837 48.192 89.8487 48.491 89.9787 48.751C90.1173 49.0023 90.308 49.2017 90.5507 49.349C90.7933 49.4877 91.0707 49.557 91.3827 49.557ZM98.7782 51.13C98.1456 51.13 97.5736 50.987 97.0622 50.701C96.5596 50.4063 96.1566 50.012 95.8532 49.518C95.5586 49.0153 95.4112 48.4563 95.4112 47.841C95.4112 47.2257 95.5586 46.6753 95.8532 46.19C96.1479 45.696 96.5509 45.306 97.0622 45.02C97.5736 44.7253 98.1412 44.578 98.7652 44.578C99.4066 44.578 99.9786 44.7253 100.481 45.02C100.993 45.306 101.396 45.696 101.69 46.19C101.985 46.6753 102.132 47.2257 102.132 47.841C102.132 48.4563 101.985 49.0153 101.69 49.518C101.396 50.012 100.993 50.4063 100.481 50.701C99.9786 50.987 99.4109 51.13 98.7782 51.13ZM98.7652 49.544C99.0859 49.544 99.3676 49.4747 99.6102 49.336C99.8616 49.1887 100.052 48.9893 100.182 48.738C100.321 48.478 100.39 48.1833 100.39 47.854C100.39 47.5247 100.321 47.2343 100.182 46.983C100.044 46.7317 99.8529 46.5367 99.6102 46.398C99.3676 46.2507 99.0859 46.177 98.7652 46.177C98.4532 46.177 98.1759 46.2507 97.9332 46.398C97.6906 46.5367 97.4999 46.7317 97.3612 46.983C97.2226 47.2343 97.1532 47.5247 97.1532 47.854C97.1532 48.1833 97.2226 48.478 97.3612 48.738C97.4999 48.9893 97.6906 49.1887 97.9332 49.336C98.1759 49.4747 98.4532 49.544 98.7652 49.544ZM105.855 51.13C105.283 51.13 104.767 50.987 104.308 50.701C103.848 50.415 103.489 50.025 103.229 49.531C102.969 49.037 102.839 48.4823 102.839 47.867C102.839 47.243 102.969 46.684 103.229 46.19C103.489 45.696 103.848 45.306 104.308 45.02C104.767 44.734 105.283 44.591 105.855 44.591C106.305 44.591 106.708 44.682 107.064 44.864C107.419 45.046 107.701 45.3017 107.909 45.631C108.125 45.9517 108.242 46.3157 108.26 46.723V48.985C108.242 49.401 108.125 49.7693 107.909 50.09C107.701 50.4107 107.419 50.6663 107.064 50.857C106.708 51.039 106.305 51.13 105.855 51.13ZM106.167 49.557C106.643 49.557 107.029 49.401 107.324 49.089C107.618 48.7683 107.766 48.3567 107.766 47.854C107.766 47.5247 107.696 47.2343 107.558 46.983C107.428 46.723 107.241 46.5237 106.999 46.385C106.765 46.2377 106.487 46.164 106.167 46.164C105.855 46.164 105.577 46.2377 105.335 46.385C105.101 46.5237 104.914 46.723 104.776 46.983C104.646 47.2343 104.581 47.5247 104.581 47.854C104.581 48.192 104.646 48.491 104.776 48.751C104.914 49.0023 105.101 49.2017 105.335 49.349C105.577 49.4877 105.855 49.557 106.167 49.557ZM107.675 51V49.31L107.948 47.776L107.675 46.268V44.721H109.365V51H107.675ZM110.871 51V44.721H112.574V51H110.871ZM112.574 47.529L111.911 47.087C111.989 46.3157 112.215 45.709 112.587 45.267C112.96 44.8163 113.497 44.591 114.199 44.591C114.503 44.591 114.776 44.643 115.018 44.747C115.261 44.8423 115.482 45.0027 115.681 45.228L114.615 46.45C114.52 46.346 114.403 46.268 114.264 46.216C114.134 46.164 113.983 46.138 113.809 46.138C113.445 46.138 113.146 46.255 112.912 46.489C112.687 46.7143 112.574 47.061 112.574 47.529ZM118.754 51.13C118.173 51.13 117.653 50.987 117.194 50.701C116.734 50.415 116.37 50.025 116.102 49.531C115.842 49.037 115.712 48.4823 115.712 47.867C115.712 47.243 115.842 46.684 116.102 46.19C116.37 45.696 116.73 45.306 117.181 45.02C117.64 44.734 118.164 44.591 118.754 44.591C119.204 44.591 119.607 44.682 119.963 44.864C120.327 45.046 120.617 45.3017 120.834 45.631C121.059 45.9517 121.18 46.3157 121.198 46.723V48.959C121.18 49.3663 121.063 49.7347 120.847 50.064C120.63 50.3933 120.34 50.6533 119.976 50.844C119.612 51.0347 119.204 51.13 118.754 51.13ZM119.04 49.557C119.36 49.557 119.638 49.4877 119.872 49.349C120.114 49.2017 120.301 49.0023 120.431 48.751C120.569 48.491 120.639 48.192 120.639 47.854C120.639 47.5247 120.569 47.2343 120.431 46.983C120.301 46.723 120.114 46.5237 119.872 46.385C119.638 46.2377 119.365 46.164 119.053 46.164C118.732 46.164 118.45 46.2377 118.208 46.385C117.974 46.5323 117.787 46.7317 117.649 46.983C117.519 47.2343 117.454 47.5247 117.454 47.854C117.454 48.192 117.519 48.491 117.649 48.751C117.787 49.0023 117.978 49.2017 118.221 49.349C118.463 49.4877 118.736 49.557 119.04 49.557ZM122.238 51H120.548V49.31L120.821 47.776L120.535 46.268V41.601H122.238V51ZM127.765 47.607V46.164H129.884C130.162 46.164 130.413 46.1077 130.638 45.995C130.864 45.8823 131.041 45.722 131.171 45.514C131.301 45.2973 131.366 45.0373 131.366 44.734C131.366 44.4393 131.301 44.1837 131.171 43.967C131.041 43.7503 130.864 43.5857 130.638 43.473C130.413 43.3603 130.162 43.304 129.884 43.304H127.765V41.861H130.066C130.647 41.861 131.167 41.978 131.626 42.212C132.094 42.446 132.463 42.7797 132.731 43.213C133 43.6377 133.134 44.1447 133.134 44.734C133.134 45.3233 133 45.8347 132.731 46.268C132.463 46.6927 132.094 47.022 131.626 47.256C131.167 47.49 130.647 47.607 130.066 47.607H127.765ZM126.465 51V41.861H128.233V51H126.465ZM136.628 51.13C136.056 51.13 135.54 50.987 135.081 50.701C134.622 50.415 134.262 50.025 134.002 49.531C133.742 49.037 133.612 48.4823 133.612 47.867C133.612 47.243 133.742 46.684 134.002 46.19C134.262 45.696 134.622 45.306 135.081 45.02C135.54 44.734 136.056 44.591 136.628 44.591C137.079 44.591 137.482 44.682 137.837 44.864C138.192 45.046 138.474 45.3017 138.682 45.631C138.899 45.9517 139.016 46.3157 139.033 46.723V48.985C139.016 49.401 138.899 49.7693 138.682 50.09C138.474 50.4107 138.192 50.6663 137.837 50.857C137.482 51.039 137.079 51.13 136.628 51.13ZM136.94 49.557C137.417 49.557 137.802 49.401 138.097 49.089C138.392 48.7683 138.539 48.3567 138.539 47.854C138.539 47.5247 138.47 47.2343 138.331 46.983C138.201 46.723 138.015 46.5237 137.772 46.385C137.538 46.2377 137.261 46.164 136.94 46.164C136.628 46.164 136.351 46.2377 136.108 46.385C135.874 46.5237 135.688 46.723 135.549 46.983C135.419 47.2343 135.354 47.5247 135.354 47.854C135.354 48.192 135.419 48.491 135.549 48.751C135.688 49.0023 135.874 49.2017 136.108 49.349C136.351 49.4877 136.628 49.557 136.94 49.557ZM138.448 51V49.31L138.721 47.776L138.448 46.268V44.721H140.138V51H138.448ZM145.87 51V47.399C145.87 47.0263 145.753 46.723 145.519 46.489C145.285 46.255 144.981 46.138 144.609 46.138C144.366 46.138 144.149 46.19 143.959 46.294C143.768 46.398 143.616 46.5453 143.504 46.736C143.4 46.9267 143.348 47.1477 143.348 47.399L142.685 47.061C142.685 46.567 142.789 46.138 142.997 45.774C143.213 45.4013 143.508 45.111 143.881 44.903C144.262 44.695 144.691 44.591 145.168 44.591C145.627 44.591 146.039 44.708 146.403 44.942C146.767 45.1673 147.053 45.4663 147.261 45.839C147.469 46.203 147.573 46.5973 147.573 47.022V51H145.87ZM141.645 51V44.721H143.348V51H141.645ZM151.947 51.13C151.289 51.13 150.704 50.9913 150.192 50.714C149.681 50.428 149.274 50.038 148.97 49.544C148.676 49.05 148.528 48.4867 148.528 47.854C148.528 47.23 148.671 46.6753 148.957 46.19C149.252 45.696 149.651 45.306 150.153 45.02C150.656 44.7253 151.215 44.578 151.83 44.578C152.437 44.578 152.97 44.7167 153.429 44.994C153.897 45.2627 154.261 45.6353 154.521 46.112C154.79 46.58 154.924 47.113 154.924 47.711C154.924 47.8237 154.916 47.9407 154.898 48.062C154.89 48.1747 154.868 48.3047 154.833 48.452L149.555 48.465V47.191L154.04 47.178L153.351 47.711C153.334 47.3383 153.265 47.0263 153.143 46.775C153.031 46.5237 152.862 46.333 152.636 46.203C152.42 46.0643 152.151 45.995 151.83 45.995C151.492 45.995 151.198 46.073 150.946 46.229C150.695 46.3763 150.5 46.5887 150.361 46.866C150.231 47.1347 150.166 47.4553 150.166 47.828C150.166 48.2093 150.236 48.543 150.374 48.829C150.522 49.1063 150.73 49.323 150.998 49.479C151.267 49.6263 151.579 49.7 151.934 49.7C152.255 49.7 152.545 49.648 152.805 49.544C153.065 49.4313 153.291 49.2667 153.481 49.05L154.482 50.051C154.179 50.4063 153.806 50.675 153.364 50.857C152.931 51.039 152.459 51.13 151.947 51.13ZM155.978 51V41.601H157.681V51H155.978Z" fill="#5F5F5F"/>
</svg>
