<svg width="261" height="46" viewBox="0 0 261 46" fill="none" xmlns="http://www.w3.org/2000/svg">
<path d="M22.9997 0C35.7026 0 45.9997 10.2971 45.9997 23V39.1C45.9997 40.93 45.2728 42.685 43.9788 43.979C42.6848 45.273 40.9297 46 39.0997 46H24.1497V35.9099C24.1497 33.6076 24.29 31.2225 25.4975 29.2629C26.362 27.8586 27.5185 26.6566 28.8884 25.7385C30.2583 24.8204 31.8096 24.2077 33.4371 23.9418L33.8776 23.8705C34.0592 23.8085 34.2168 23.6912 34.3284 23.5351C34.44 23.379 34.5 23.1919 34.5 23C34.5 22.8081 34.44 22.621 34.3284 22.4649C34.2168 22.3088 34.0592 22.1915 33.8776 22.1294L33.4371 22.0581C31.0591 21.6697 28.8632 20.5441 27.1594 18.8403C25.4556 17.1365 24.3301 14.9406 23.9416 12.5626L23.8703 12.1222C23.8082 11.9406 23.6909 11.7829 23.5348 11.6713C23.3787 11.5597 23.1916 11.4997 22.9997 11.4997C22.8078 11.4997 22.6208 11.5597 22.4647 11.6713C22.3086 11.7829 22.1913 11.9406 22.1292 12.1222L22.0579 12.5626C21.7922 14.1902 21.1795 15.7415 20.2614 17.1114C19.3433 18.4814 18.1412 19.6378 16.7368 20.5022C14.7772 21.7097 12.3921 21.85 10.0898 21.85H0.0273438C0.628794 9.68185 10.6832 0 22.9997 0Z" fill="#5F6FFF"/>
<path d="M0 24.15H10.0901C12.3924 24.15 14.7775 24.2903 16.7371 25.4978C18.2689 26.4417 19.5583 27.7311 20.5022 29.2629C21.7097 31.2225 21.85 33.6076 21.85 35.9099V46H6.9C5.07001 46 3.31496 45.273 2.02096 43.979C0.726962 42.685 0 40.93 0 39.1L0 24.15ZM46 2.3C46 2.91 45.7577 3.49501 45.3263 3.92635C44.895 4.35768 44.31 4.6 43.7 4.6C43.09 4.6 42.505 4.35768 42.0737 3.92635C41.6423 3.49501 41.4 2.91 41.4 2.3C41.4 1.69 41.6423 1.10499 42.0737 0.673654C42.505 0.242321 43.09 0 43.7 0C44.31 0 44.895 0.242321 45.3263 0.673654C45.7577 1.10499 46 1.69 46 2.3Z" fill="#5F6FFF"/>
<path d="M57.68 37L67.302 13.098H71.076L80.664 37H75.734L68.322 17.382H70.022L62.508 37H57.68ZM62.78 32.546V28.67H75.632V32.546H62.78ZM92.3887 37.34C91.21 37.34 90.1447 37.102 89.1927 36.626C88.2407 36.1273 87.4814 35.4587 86.9147 34.62C86.348 33.7813 86.042 32.818 85.9967 31.73V25.916C86.042 24.828 86.348 23.8647 86.9147 23.026C87.504 22.1647 88.2634 21.4847 89.1927 20.986C90.1447 20.4873 91.21 20.238 92.3887 20.238C93.9074 20.238 95.2674 20.612 96.4687 21.36C97.67 22.108 98.6107 23.128 99.2907 24.42C99.9934 25.712 100.345 27.174 100.345 28.806C100.345 30.4153 99.9934 31.866 99.2907 33.158C98.6107 34.45 97.67 35.47 96.4687 36.218C95.2674 36.966 93.9074 37.34 92.3887 37.34ZM83.2767 43.868V20.578H87.7307V24.896L86.9827 28.874L87.6967 32.852V43.868H83.2767ZM91.6067 33.226C92.4227 33.226 93.148 33.0447 93.7827 32.682C94.4174 32.2967 94.9047 31.7753 95.2447 31.118C95.6074 30.438 95.7887 29.656 95.7887 28.772C95.7887 27.9107 95.6074 27.1513 95.2447 26.494C94.9047 25.814 94.4174 25.2927 93.7827 24.93C93.148 24.5447 92.4227 24.352 91.6067 24.352C90.8134 24.352 90.0994 24.5447 89.4647 24.93C88.83 25.2927 88.3314 25.814 87.9687 26.494C87.6287 27.1513 87.4587 27.9107 87.4587 28.772C87.4587 29.656 87.6287 30.438 87.9687 31.118C88.3314 31.7753 88.8187 32.2967 89.4307 32.682C90.0654 33.0447 90.7907 33.226 91.6067 33.226ZM112.377 37.34C111.198 37.34 110.133 37.102 109.181 36.626C108.229 36.1273 107.47 35.4587 106.903 34.62C106.336 33.7813 106.03 32.818 105.985 31.73V25.916C106.03 24.828 106.336 23.8647 106.903 23.026C107.492 22.1647 108.252 21.4847 109.181 20.986C110.133 20.4873 111.198 20.238 112.377 20.238C113.896 20.238 115.256 20.612 116.457 21.36C117.658 22.108 118.599 23.128 119.279 24.42C119.982 25.712 120.333 27.174 120.333 28.806C120.333 30.4153 119.982 31.866 119.279 33.158C118.599 34.45 117.658 35.47 116.457 36.218C115.256 36.966 113.896 37.34 112.377 37.34ZM103.265 43.868V20.578H107.719V24.896L106.971 28.874L107.685 32.852V43.868H103.265ZM111.595 33.226C112.411 33.226 113.136 33.0447 113.771 32.682C114.406 32.2967 114.893 31.7753 115.233 31.118C115.596 30.438 115.777 29.656 115.777 28.772C115.777 27.9107 115.596 27.1513 115.233 26.494C114.893 25.814 114.406 25.2927 113.771 24.93C113.136 24.5447 112.411 24.352 111.595 24.352C110.802 24.352 110.088 24.5447 109.453 24.93C108.818 25.2927 108.32 25.814 107.957 26.494C107.617 27.1513 107.447 27.9107 107.447 28.772C107.447 29.656 107.617 30.438 107.957 31.118C108.32 31.7753 108.807 32.2967 109.419 32.682C110.054 33.0447 110.779 33.226 111.595 33.226ZM130.971 37.34C129.317 37.34 127.821 36.966 126.483 36.218C125.169 35.4473 124.115 34.416 123.321 33.124C122.551 31.8093 122.165 30.3473 122.165 28.738C122.165 27.1287 122.551 25.6893 123.321 24.42C124.092 23.128 125.146 22.108 126.483 21.36C127.821 20.5893 129.305 20.204 130.937 20.204C132.615 20.204 134.111 20.5893 135.425 21.36C136.763 22.108 137.817 23.128 138.587 24.42C139.358 25.6893 139.743 27.1287 139.743 28.738C139.743 30.3473 139.358 31.8093 138.587 33.124C137.817 34.416 136.763 35.4473 135.425 36.218C134.111 36.966 132.626 37.34 130.971 37.34ZM130.937 33.192C131.776 33.192 132.513 33.0107 133.147 32.648C133.805 32.2627 134.303 31.7413 134.643 31.084C135.006 30.404 135.187 29.6333 135.187 28.772C135.187 27.9107 135.006 27.1513 134.643 26.494C134.281 25.8367 133.782 25.3267 133.147 24.964C132.513 24.5787 131.776 24.386 130.937 24.386C130.121 24.386 129.396 24.5787 128.761 24.964C128.127 25.3267 127.628 25.8367 127.265 26.494C126.903 27.1513 126.721 27.9107 126.721 28.772C126.721 29.6333 126.903 30.404 127.265 31.084C127.628 31.7413 128.127 32.2627 128.761 32.648C129.396 33.0107 130.121 33.192 130.937 33.192ZM142.611 37V20.578H147.099V37H142.611ZM144.855 17.926C144.129 17.926 143.529 17.688 143.053 17.212C142.577 16.7133 142.339 16.1013 142.339 15.376C142.339 14.6733 142.577 14.0727 143.053 13.574C143.529 13.0753 144.129 12.826 144.855 12.826C145.603 12.826 146.203 13.0753 146.657 13.574C147.133 14.0727 147.371 14.6733 147.371 15.376C147.371 16.1013 147.133 16.7133 146.657 17.212C146.203 17.688 145.603 17.926 144.855 17.926ZM162.094 37V27.582C162.094 26.6073 161.788 25.814 161.176 25.202C160.564 24.59 159.771 24.284 158.796 24.284C158.162 24.284 157.595 24.42 157.096 24.692C156.598 24.964 156.201 25.3493 155.906 25.848C155.634 26.3467 155.498 26.9247 155.498 27.582L153.764 26.698C153.764 25.406 154.036 24.284 154.58 23.332C155.147 22.3573 155.918 21.598 156.892 21.054C157.89 20.51 159.012 20.238 160.258 20.238C161.46 20.238 162.536 20.544 163.488 21.156C164.44 21.7453 165.188 22.5273 165.732 23.502C166.276 24.454 166.548 25.4853 166.548 26.596V37H162.094ZM151.044 37V20.578H155.498V37H151.044ZM172.351 37V13.744H176.805V37H172.351ZM168.509 24.488V20.578H180.647V24.488H168.509ZM181.86 37L191.482 13.098H195.256L204.844 37H199.914L192.502 17.382H194.202L186.688 37H181.86ZM186.96 32.546V28.67H199.812V32.546H186.96ZM213.496 37.34C211.977 37.34 210.617 36.966 209.416 36.218C208.215 35.47 207.263 34.45 206.56 33.158C205.88 31.866 205.54 30.4153 205.54 28.806C205.54 27.174 205.88 25.712 206.56 24.42C207.263 23.128 208.203 22.108 209.382 21.36C210.583 20.612 211.955 20.238 213.496 20.238C214.675 20.238 215.729 20.476 216.658 20.952C217.61 21.428 218.369 22.0967 218.936 22.958C219.525 23.7967 219.843 24.7487 219.888 25.814V31.662C219.843 32.7273 219.537 33.6907 218.97 34.552C218.403 35.4133 217.644 36.0933 216.692 36.592C215.74 37.0907 214.675 37.34 213.496 37.34ZM214.244 33.226C215.083 33.226 215.808 33.0447 216.42 32.682C217.055 32.2967 217.542 31.7753 217.882 31.118C218.245 30.438 218.426 29.656 218.426 28.772C218.426 27.9107 218.245 27.1513 217.882 26.494C217.542 25.814 217.055 25.2927 216.42 24.93C215.808 24.5447 215.094 24.352 214.278 24.352C213.439 24.352 212.703 24.5447 212.068 24.93C211.456 25.3153 210.969 25.8367 210.606 26.494C210.266 27.1513 210.096 27.9107 210.096 28.772C210.096 29.656 210.266 30.438 210.606 31.118C210.969 31.7753 211.467 32.2967 212.102 32.682C212.737 33.0447 213.451 33.226 214.244 33.226ZM222.608 37H218.188V32.58L218.902 28.568L218.154 24.624V12.418H222.608V37ZM234.266 37.34C232.612 37.34 231.116 36.966 229.778 36.218C228.464 35.4473 227.41 34.416 226.616 33.124C225.846 31.8093 225.46 30.3473 225.46 28.738C225.46 27.1287 225.846 25.6893 226.616 24.42C227.387 23.128 228.441 22.108 229.778 21.36C231.116 20.5893 232.6 20.204 234.232 20.204C235.91 20.204 237.406 20.5893 238.72 21.36C240.058 22.108 241.112 23.128 241.882 24.42C242.653 25.6893 243.038 27.1287 243.038 28.738C243.038 30.3473 242.653 31.8093 241.882 33.124C241.112 34.416 240.058 35.4473 238.72 36.218C237.406 36.966 235.921 37.34 234.266 37.34ZM234.232 33.192C235.071 33.192 235.808 33.0107 236.442 32.648C237.1 32.2627 237.598 31.7413 237.938 31.084C238.301 30.404 238.482 29.6333 238.482 28.772C238.482 27.9107 238.301 27.1513 237.938 26.494C237.576 25.8367 237.077 25.3267 236.442 24.964C235.808 24.5787 235.071 24.386 234.232 24.386C233.416 24.386 232.691 24.5787 232.056 24.964C231.422 25.3267 230.923 25.8367 230.56 26.494C230.198 27.1513 230.016 27.9107 230.016 28.772C230.016 29.6333 230.198 30.404 230.56 31.084C230.923 31.7413 231.422 32.2627 232.056 32.648C232.691 33.0107 233.416 33.192 234.232 33.192ZM253.658 37.34C251.98 37.34 250.473 36.966 249.136 36.218C247.798 35.47 246.744 34.45 245.974 33.158C245.203 31.866 244.818 30.4153 244.818 28.806C244.818 27.174 245.203 25.712 245.974 24.42C246.744 23.128 247.798 22.108 249.136 21.36C250.496 20.5893 252.003 20.204 253.658 20.204C254.95 20.204 256.14 20.442 257.228 20.918C258.316 21.394 259.256 22.074 260.05 22.958L257.194 25.848C256.763 25.372 256.242 25.0093 255.63 24.76C255.04 24.5107 254.383 24.386 253.658 24.386C252.842 24.386 252.105 24.5787 251.448 24.964C250.813 25.3267 250.303 25.8367 249.918 26.494C249.555 27.1287 249.374 27.888 249.374 28.772C249.374 29.6333 249.555 30.404 249.918 31.084C250.303 31.7413 250.813 32.2627 251.448 32.648C252.105 33.0107 252.842 33.192 253.658 33.192C254.406 33.192 255.074 33.0673 255.664 32.818C256.276 32.546 256.797 32.1607 257.228 31.662L260.118 34.552C259.279 35.4587 258.316 36.15 257.228 36.626C256.14 37.102 254.95 37.34 253.658 37.34Z" fill="#000B6D"/>
</svg>
